<svg width="55" height="51" viewBox="0 0 55 51" fill="none" xmlns="http://www.w3.org/2000/svg">
<path d="M48.4344 25.7781L42.4951 16.6083C42.0348 15.8976 41.2543 15.4732 40.4074 15.4732H14.2027C13.3571 15.4732 12.5774 15.8965 12.1169 16.6054L6.15913 25.7764C5.55031 26.7134 5.64435 27.9507 6.38784 28.7849L25.4375 50.1672C25.909 50.6964 26.5859 51 27.2947 51C27.2948 51 27.2947 51 27.2948 51C28.0035 51 28.6806 50.6965 29.1521 50.1673L48.2039 28.7838C48.9463 27.9505 49.0411 26.7145 48.4344 25.7781ZM39.2043 17.6051L34.2094 25.3274L29.2115 17.6051H39.2043ZM32.2497 26.2241H22.3397L27.2947 18.5681L32.2497 26.2241ZM25.3779 17.6054L20.3938 25.3064L15.4113 17.6054H25.3779ZM13.4397 18.4832L18.4479 26.2241H8.41103L13.4397 18.4832ZM8.86141 28.3562H19.5926L25.2667 46.7701L8.86141 28.3562ZM27.2947 46.11L21.8239 28.3562H32.7655L27.2947 46.11ZM29.3226 46.7708L34.9969 28.3563H45.729L29.3226 46.7708ZM36.169 26.2241L41.1726 18.4886L46.1827 26.2241H36.169Z" fill="#4B4B4B"/>
<path d="M3.23423 26.2242H1.06624C0.477463 26.2242 0 26.7014 0 27.2902C0 27.8789 0.477463 28.3562 1.06624 28.3562H3.23423C3.82301 28.3562 4.30047 27.8789 4.30047 27.2902C4.30047 26.7014 3.82301 26.2242 3.23423 26.2242Z" fill="#4B4B4B"/>
<path d="M53.5253 26.2242H51.3573C50.7685 26.2242 50.2911 26.7014 50.2911 27.2902C50.2911 27.8789 50.7685 28.3562 51.3573 28.3562H53.5253C54.1141 28.3562 54.5915 27.8789 54.5915 27.2902C54.5915 26.7014 54.1141 26.2242 53.5253 26.2242Z" fill="#4B4B4B"/>
<path d="M46.6103 7.99867C46.1938 7.58239 45.5189 7.58239 45.1023 7.99867L41.5606 11.5397C41.1442 11.956 41.1442 12.631 41.5606 13.0472C41.7689 13.2554 42.0418 13.3595 42.3146 13.3595C42.5876 13.3595 42.8603 13.2553 43.0685 13.0472L46.6103 9.50624C47.0267 9.08996 47.0267 8.41506 46.6103 7.99867Z" fill="#4B4B4B"/>
<path d="M13.077 11.5207L9.53541 7.9796C9.11915 7.56332 8.44422 7.56332 8.02742 7.9796C7.61106 8.39588 7.61106 9.07089 8.02742 9.48717L11.5692 13.0282C11.7774 13.2364 12.0502 13.3404 12.3231 13.3404C12.5959 13.3404 12.8688 13.2363 13.077 13.0282C13.4934 12.612 13.4934 11.9369 13.077 11.5207Z" fill="#4B4B4B"/>
<path d="M27.3228 0C26.7341 0 26.2566 0.477258 26.2566 1.06602V8.01308C26.2566 8.60184 26.7339 9.0791 27.3228 9.0791C27.9116 9.0791 28.3891 8.60184 28.3891 8.01308V1.06602C28.3891 0.477365 27.9116 0 27.3228 0Z" fill="#4B4B4B"/>
<path d="M28.0761 10.8657C27.8779 10.6674 27.6028 10.5533 27.3224 10.5533C27.042 10.5533 26.7669 10.6674 26.5686 10.8657C26.3703 11.0639 26.2562 11.339 26.2562 11.6193C26.2562 11.9008 26.3701 12.1747 26.5686 12.373C26.7669 12.5724 27.042 12.6854 27.3224 12.6854C27.6028 12.6854 27.8779 12.5724 28.0761 12.373C28.2755 12.1747 28.3886 11.8997 28.3886 11.6193C28.3886 11.339 28.2755 11.064 28.0761 10.8657Z" fill="#4B4B4B"/>
</svg>
